<?xml version="1.0" encoding="utf-8"?>
<!-- Generator: Adobe Illustrator 23.0.3, SVG Export Plug-In . SVG Version: 6.00 Build 0)  -->
<svg version="1.1" id="Layer_1" xmlns="http://www.w3.org/2000/svg" xmlns:xlink="http://www.w3.org/1999/xlink" x="0px" y="0px"
	 viewBox="0 0 24 24" style="enable-background:new 0 0 24 24;" xml:space="preserve">
<style type="text/css">
	.st0{fill:url(#SVGID_1_);}
</style>
<linearGradient id="SVGID_1_" gradientUnits="userSpaceOnUse" x1="4.3623" y1="5.6416" x2="19.8127" y2="14.8767">
	<stop  offset="0" style="stop-color:#8E2DE2"/>
	<stop  offset="1" style="stop-color:#4A00E0"/>
</linearGradient>
<path class="st0" d="M6,2c1.7,0,3,1.3,3,3c0,1.3-0.8,2.4-1.9,2.8c0.1,0.5,0.3,1,0.9,1.8c1,1.3,3,3.2,4,4.5c1-1.3,3-3.3,4-4.5
	c0.6-0.8,0.9-1.4,0.9-1.8C15.8,7.4,15,6.3,15,5c0-1.7,1.3-3,3-3s3,1.3,3,3c0,1.3-0.9,2.4-2,2.8c-0.1,0.5-0.3,1.2-1,2
	c-1,1.3-3,3.3-4,4.6c-0.6,0.8-0.9,1.3-0.9,1.8c1.1,0.4,1.9,1.5,1.9,2.8c0,1.7-1.3,3-3,3s-3-1.3-3-3c0-1.3,0.8-2.4,1.9-2.8
	c-0.1-0.5-0.3-1-0.9-1.8c-1-1.3-3-3.2-4-4.6C5.4,9,5.1,8.4,5.1,7.8C3.9,7.4,3,6.3,3,5C3,3.3,4.3,2,6,2 M6,4C5.4,4,5,4.4,5,5
	s0.4,1,1,1s1-0.4,1-1S6.6,4,6,4 M18,4c-0.6,0-1,0.4-1,1s0.4,1,1,1s1-0.4,1-1S18.6,4,18,4 M12,18c-0.6,0-1,0.4-1,1s0.4,1,1,1
	s1-0.4,1-1S12.6,18,12,18z"/>
</svg>
